<?xml version="1.0" encoding="iso-8859-1"?>
<!-- Generator: Adobe Illustrator 18.1.1, SVG Export Plug-In . SVG Version: 6.00 Build 0)  -->
<svg version="1.1" id="Capa_1" xmlns="http://www.w3.org/2000/svg" xmlns:xlink="http://www.w3.org/1999/xlink" x="0px" y="0px"
	 viewBox="0 0 34.659 34.659" style="enable-background:new 0 0 34.659 34.659;" xml:space="preserve">
<g>
	<path d="M26.914,12.189c0,0,1.795-1.457,0.715-2.533c-1.076-1.074-2.492,0.684-2.492,0.684l-9.09,9.084
		c0,0-3.727,4.432-5.475,3.135c-2.512-1.865,2.742-5.922,2.742-5.922l8.891-9.256c0,0,3.844-4.535,7.227-1.34
		c3.713,3.434,1.178,5.09,1.178,5.09L15.027,26.714c0,0-5.18,5.311-9.84,1.17c-5.542-5.218,0.534-10.945,0.534-10.945L17.848,4.814
		c0,0,1.355-1.135,0.34-2.154c-1.021-1.021-2.154,0.342-2.154,0.342l-13.91,13.91c0,0-5.559,5.895,1.309,12.785
		c5.861,5.861,11.623,0.613,11.623,0.613l19.12-19.119c0,0,2.238-1.904-2.92-6.969c-4.561-4.566-9.504-0.016-9.504-0.016
		L8.936,17.392c0,0-4.072,3.281-0.246,7.105c3.383,3.387,8.295-2.383,8.295-2.383L26.914,12.189z"/>
	<g>
	</g>
	<g>
	</g>
	<g>
	</g>
	<g>
	</g>
	<g>
	</g>
	<g>
	</g>
	<g>
	</g>
	<g>
	</g>
	<g>
	</g>
	<g>
	</g>
	<g>
	</g>
	<g>
	</g>
	<g>
	</g>
	<g>
	</g>
	<g>
	</g>
</g>
<g>
</g>
<g>
</g>
<g>
</g>
<g>
</g>
<g>
</g>
<g>
</g>
<g>
</g>
<g>
</g>
<g>
</g>
<g>
</g>
<g>
</g>
<g>
</g>
<g>
</g>
<g>
</g>
<g>
</g>
</svg>
